<svg version="1.2" baseProfile="tiny" xmlns="http://www.w3.org/2000/svg" width="119.767" height="69.02" viewBox="0 0 119.767 69.02"><path fill-rule="evenodd" fill="#322DD0" d="M54.434 14.368c-9.023-28.042-58.648-4.272-39.861 19.847 1.961 2.52 4.113 3.742 5.092 4.936 1.291 1.567 1.105 2.782-.365 1.89-1.088-.651-2.276-3.498-5.648-5.152C9.05 33.626-1.84 41.018.269 53.189 1.692 61.379 7.125 69.02 18.25 69.02c27.736 0 60.525.045 85.703-1.811 18.697-1.13 21.768-29.214 4.07-29.666-3.783-.098-6.527-.928-6.666 3.042-.141 3.978-1.294 5.387-1.6-.261.088-10.266-.582-20.919-4.789-29.382-7.483-15.062-38.766-15.245-38.464 3.65.035 2.053-.258 4.013-.258 5.331.001 1.211.833 2.664-1.812-5.555"/></svg>