<svg xmlns="http://www.w3.org/2000/svg" width="158" height="157.815" viewBox="401 201.065 158 157.815"><path fill="#322DD0" d="M488.5 268.081c-7.1-5.1-17.3-1.2-21.9 8.1-5.3 10.7 23.7 26.6 22.3 11.7-.9-8.8 11-9.1-.4-19.8"/><g fill="#231F20"><path d="M451.8 205.881l3.6 9.2-.8.3-3.1-8-1.6 2.4-.3-.8 2-3 .2-.1zM475.1 201.98c.3.3.5.7.7 1.2.4.9.5 1.7.6 2.6.1.9.1 1.7-.1 2.7-.3 1.4-1.1 2.5-2.9 2.7-1.4.1-2.4-.5-3-1.5-.6-1-.8-2-.9-3.2-.1-.9-.1-1.7.1-2.7.3-1.4 1.1-2.5 2.9-2.7 1.2-.1 2.1.301 2.6.9zm-4.5 1.601c-.3 1-.3 1.8-.2 2.8.1.8.2 1.4.5 2.2.4 1.1 1.2 2 2.5 1.9 1.1-.1 1.8-.8 2-1.7.3-1 .3-1.8.2-2.8-.1-.8-.2-1.4-.5-2.2-.4-1.1-1.2-2-2.5-1.9-1.1 0-1.8.599-2 1.7zM497 203.781c.2.4.3.8.3 1.3.101 1 0 1.8-.1 2.7-.2.9-.4 1.6-.899 2.5-.601 1.2-1.801 2.1-3.501 1.8-1.399-.3-2.2-1.1-2.5-2.2-.3-1.1-.199-2.1 0-3.4.2-.9.4-1.7.9-2.6.7-1.3 1.8-2.1 3.5-1.8 1.2.3 1.901.899 2.3 1.7zm-4.8.199c-.5.9-.8 1.7-.9 2.6-.199.8-.3 1.4-.3 2.3.101 1.2.601 2.2 1.9 2.5 1.1.2 1.899-.3 2.399-1.1.5-.9.8-1.6 1.001-2.6.1-.8.199-1.4.199-2.3-.1-1.2-.6-2.3-1.899-2.5-1.1-.299-1.9.201-2.4 1.1zM520.7 211.781l-11.5 5.7-.6-.3 11.499-5.6.601.2zm-9-2c.3-.6.8-.9 1.399-1.1.601-.2 1.2-.1 1.801.2.6.3.899.8 1.1 1.4s.101 1.2-.2 1.7c-.3.6-.8 1-1.399 1.1-.601.2-1.2.1-1.7-.2-1.301-.6-1.601-1.901-1.001-3.1zm.7.4c-.4.8-.3 1.7.6 2.2.8.4 1.7 0 2.101-.8.399-.8.199-1.7-.601-2.2-.8-.3-1.7-.001-2.1.8zm1.201 6.799c.3-.6.8-1 1.399-1.1.601-.2 1.2-.1 1.801.2.6.3.899.8 1.1 1.4.199.6.1 1.2-.2 1.7-.3.6-.8.9-1.3 1.1-.601.2-1.2.1-1.7-.2-1.401-.699-1.701-1.899-1.1-3.1zm1.299 2.5c1.2.7 2.7-.7 2.3-2-.1-.4-.3-.7-.7-.9-.8-.4-1.699-.1-2.1.7-.6.901-.4 1.801.5 2.2zM540.7 246.98l-.4-.7 4.101-2.5-3-4.8-4.101 2.5-.399-.7 8.399-5.1.4.7-3.601 2.2 3.001 4.8 3.6-2.2.4.7-8.4 5.1zM547.7 266.381l2.101-1.6-1.2-4.7-2.601-.4-.2-.8 10.601 1.7.1.2-8.6 6.5-.201-.9zm7-5.3l-5.3-.8 1 4.1 4.3-3.3zM549 280.78l.101-.8 9.899.601v.199l-8.5 6.601v.1l7.9.5-.101.801-9.899-.601v-.2l8.5-6.6-7.9-.601zM545.5 301.681l9.101 3.6-1.2 3.101c-.5 1.3-1.4 2.2-2.5 2.699-1.1.501-2.4.4-3.8-.1s-2.301-1.399-2.9-2.5c-.5-1.1-.6-2.3 0-3.6l1.299-3.2zm5.101 8.7c.899-.3 1.699-1.101 2.1-2.3l.899-2.301-7.699-3-.9 2.301c-.9 2.3.101 4.1 2.5 5 1.1.5 2.199.6 3.1.3zM534.4 325.98l.1-.199 6.5.499v-.1l-5.8-4.9.5-.6 7.6 6.4-.1.199-7.9-.699 2 7.699-.1.2-7.601-6.399.501-.601 5.899 5h.101l-1.7-6.499zM513.2 340.58l2.1 1.5 4.101-2.6-.4-2.6.7-.5 1.6 10.6-.199.101-8.801-6.2.899-.301zm7.2 5.001l-.8-5.301-3.601 2.2 4.401 3.101zM500.5 345.98l2.4 9.5-3.2.8c-1.4.4-2.6.2-3.7-.399-1-.601-1.8-1.7-2.1-3.101-.4-1.399-.3-2.7.3-3.8s1.5-1.8 2.9-2.1l3.4-.9zm-4 9.201c.8.6 1.8.7 3.101.399l2.399-.6-2-8-2.399.601c-2.4.6-3.3 2.499-2.601 4.899a3.687 3.687 0 0 0 1.5 2.701zM472.7 349.58v-.8l6.5.301-.5 9.8-6.1-.3v-.801l5.3.301.2-3.5-4.9-.2v-.801l4.9.2.2-3.999-5.6-.201zM440.4 346.98c-1.4.3-2.6.101-3.9-.7-.9-.6-1.6-1.199-1.9-1.8l.5-.7c.4.7 1 1.4 1.8 1.9 1 .6 2.1.8 3.2.6s2-.899 2.7-1.999c.7-1.101.9-2.101.7-3.2-.2-1-.9-1.9-2-2.601-.7-.399-1.4-.7-2.1-.8l-2 3.2-.7-.5 2.3-3.7c.9.101 2 .5 3.1 1.2 1.3.8 2 1.899 2.3 3.1.2 1.301-.1 2.5-.8 3.7-.8 1.201-1.8 2.001-3.2 2.3zM424.5 321.78l.8.9-.7 5.5-.1.1c-.8-.899-1.5-1.399-2.3-1.5-.8-.1-1.4 0-1.9.4-1.1 1-1.1 2.3-.1 3.5l1.5 1.8 6.9-5.899.6.699-7.4 6.4-2.2-2.5c-.6-.7-.9-1.4-.9-2.3 0-.9.3-1.601 1-2.2.6-.5 1.3-.7 2-.7.8 0 1.5.4 2.2 1l.6-5.2zM414.3 304.98l.7-.3 2.7 6-9 4-2.5-5.601.7-.3 2.1 4.7 3.2-1.399-2-4.501.7-.299 2 4.499 3.7-1.6-2.3-5.199zM409.9 285.581l.8-.101.9 6.5-9.7 1.3-.9-6.1.8-.101.7 5.2 3.4-.5-.6-4.899h.7l.6 4.899 4-.5-.7-5.698zM401.3 269.881l4.6.7-3.9-5.5.2-1.1 3.9 5.5 5.8-4.4-.2 1.2-5.7 4.3 5 .8-.1.9-9.7-1.5.1-.9z"/></g></svg>