<svg xmlns="http://www.w3.org/2000/svg" width="162" height="159" viewBox="0 0 162 159"><switch><g><path fill-rule="evenodd" clip-rule="evenodd" fill="#322DD0" d="M89.767 66.317c-7.162-5.127-17.486-1.252-22.136 8.13-5.365 10.835 23.898 26.813 22.468 11.862-.855-8.911 11.138-9.249-.332-19.992"/><path d="M101.01 1.709l-2.232 8.946-.705-.176 2.033-8.146-2.243.161-.011-.65 2.873-.205.285.07zM117.651 9.414c.105.994-.159 2.128-.793 3.405-.63 1.27-1.384 2.189-2.261 2.764-.877.573-1.81.615-2.794.127-.984-.489-1.515-1.257-1.588-2.302-.073-1.046.204-2.203.834-3.472.63-1.27 1.372-2.164 2.229-2.685.857-.521 1.773-.54 2.75-.055.978.485 1.518 1.224 1.623 2.218zm-5.914.863c-.558 1.127-.828 2.117-.81 2.969.02.853.413 1.468 1.181 1.851.776.385 1.51.327 2.2-.173.689-.5 1.314-1.312 1.874-2.439 1.185-2.388 1.034-3.95-.451-4.687-1.477-.734-2.808.093-3.994 2.479zM132.774 19.991c-.13.99-.652 2.031-1.568 3.123-.909 1.086-1.856 1.804-2.844 2.155-.986.353-1.902.175-2.744-.531-.842-.705-1.177-1.575-1.003-2.608.173-1.033.715-2.092 1.623-3.178.909-1.085 1.841-1.779 2.795-2.086.956-.306 1.851-.108 2.685.591.836.7 1.187 1.545 1.056 2.534zm-5.947-.546c-.808.965-1.302 1.862-1.483 2.694-.18.833.057 1.523.714 2.074.664.556 1.39.673 2.178.349.788-.325 1.585-.968 2.393-1.932 1.71-2.042 1.931-3.595.66-4.659-1.265-1.058-2.752-.567-4.462 1.474zM136.49 35.866l-.38-.536 10.59-1.029.389.547-10.599 1.018zm6.756 3.155c-.095.605-.397 1.089-.906 1.451s-1.064.488-1.668.381a2.174 2.174 0 0 1-1.439-.916c-.356-.501-.487-1.054-.392-1.659s.397-1.089.906-1.451 1.065-.489 1.669-.38a2.172 2.172 0 0 1 1.439.914c.356.501.487 1.055.391 1.66zm-1.895-1.979c-.428-.062-.835.045-1.223.32-.387.276-.621.625-.703 1.049-.081.424.011.822.274 1.194.266.372.614.591 1.048.653.434.063.841-.04 1.221-.311.379-.27.611-.619.692-1.051a1.507 1.507 0 0 0-.272-1.204c-.264-.371-.611-.588-1.037-.65zm3.002-5.172a2.113 2.113 0 0 1-.906 1.45 2.121 2.121 0 0 1-1.668.38 2.168 2.168 0 0 1-1.439-.914 2.179 2.179 0 0 1-.396-1.665 2.132 2.132 0 0 1 .91-1.446 2.148 2.148 0 0 1 1.665-.385 2.163 2.163 0 0 1 1.443.92c.356.501.486 1.055.391 1.66zm-1.906-1.98c-.434-.063-.841.039-1.221.31s-.611.62-.693 1.051c-.083.431.009.832.272 1.205.266.372.614.589 1.048.652.434.062.841-.041 1.221-.311.38-.271.611-.621.693-1.051a1.516 1.516 0 0 0-.272-1.204c-.266-.372-.614-.591-1.048-.652zM150.016 67.76l3.53-3.49-4.567-1.944-.156-.823 5.252 2.254 3.846-3.763.158.823-3.349 3.241 4.299 1.739.157.824-4.969-2.039-4.043 4.001-.158-.823zM159.104 84.702l.209-5.042-3.254-.135-.163 3.924-.656-.026.162-3.925-3.994-.166-.216 5.21-.657-.027.247-5.935 9.218.382-.239 5.768-.657-.028zM148.667 95.172l.173-.706 8.956 2.181-.172.706-8.957-2.181zM150.757 113.835c-.645.253-1.3.224-1.966-.088-.685-.322-1.135-.81-1.354-1.462-.218-.653-.144-1.373.225-2.157l1.021-2.177-3.746-1.759.31-.658 8.353 3.921-1.33 2.836c-.365.775-.87 1.29-1.513 1.544zm1.938-4.001l-3.416-1.604-1.01 2.152c-.282.599-.34 1.135-.177 1.608.165.474.499.829 1.006 1.066.506.238.993.269 1.462.092.47-.176.845-.563 1.125-1.163l1.01-2.151zM138.876 130.259c-1.291.133-2.454-.228-3.489-1.081-1.028-.846-1.604-1.917-1.725-3.212-.122-1.294.233-2.448 1.069-3.462.84-1.021 1.904-1.593 3.193-1.714 1.287-.12 2.445.242 3.474 1.088 1.035.853 1.615 1.921 1.739 3.205.124 1.285-.234 2.438-1.074 3.459-.834 1.014-1.897 1.587-3.187 1.717zm3.562-5.063c-.12-1.076-.627-1.982-1.518-2.716-.892-.735-1.88-1.059-2.962-.974-1.083.085-1.987.566-2.708 1.443-.717.87-1.013 1.845-.889 2.924s.632 1.986 1.523 2.72c.885.729 1.87 1.048 2.956.96 1.087-.089 1.984-.564 2.695-1.428.724-.876 1.025-1.853.903-2.929zM118.802 136.996l.592-.423 4.994 6.965 4.295-3.08-4.994-6.965.591-.424 5.377 7.499-5.476 3.928-5.379-7.5zM105.211 152.272c-1.185-.528-2.014-1.419-2.487-2.675-.472-1.245-.438-2.46.102-3.644.538-1.183 1.422-2.008 2.65-2.472 1.237-.467 2.444-.433 3.622.104s2.002 1.427 2.473 2.673c.474 1.253.445 2.469-.087 3.646-.531 1.176-1.415 1.998-2.652 2.464-1.229.464-2.436.433-3.621-.096zm5.61-2.619c.431-.993.442-2.03.035-3.111-.408-1.08-1.104-1.853-2.085-2.317-.982-.465-2.004-.498-3.067-.097-1.054.397-1.796 1.097-2.226 2.095-.429.998-.439 2.038-.032 3.118.405 1.071 1.101 1.838 2.087 2.303.986.464 2.002.498 3.048.103 1.063-.402 1.81-1.101 2.24-2.094zM90.326 147.454l.72-.102 1.286 9.137-.719.102-1.287-9.137zM72.382 147.666l.725.051-.324 4.64 5.657.396.324-4.64.726.051-.644 9.198-.726-.051.273-3.903-5.657-.396-.272 3.903-.726-.051.644-9.198zM52.992 151.646l3.214 1.047 2.651-8.142.69.226-2.651 8.141 3.201 1.042-.204.625-7.104-2.314.203-.625zM36.562 142.34c-.294-1.263-.083-2.462.632-3.597.71-1.127 1.699-1.832 2.969-2.117 1.27-.284 2.459-.077 3.57.624 1.118.704 1.819 1.688 2.103 2.951.283 1.262.069 2.457-.641 3.584-.715 1.134-1.701 1.845-2.96 2.13-1.26.285-2.447.076-3.566-.629-1.111-.7-1.814-1.682-2.107-2.946zm5.473 2.896c1.053-.256 1.888-.873 2.503-1.85.616-.977.812-1.997.593-3.061-.222-1.064-.813-1.899-1.774-2.505-.953-.601-1.957-.772-3.013-.512-1.056.26-1.892.878-2.507 1.854-.61.969-.804 1.987-.578 3.054.225 1.065.811 1.898 1.756 2.493.961.608 1.967.783 3.02.527zM13.704 118.866l2.788 4.2 2.711-1.8-2.17-3.27.547-.363 2.171 3.271 3.328-2.209-2.881-4.34.547-.363 3.282 4.946-7.681 5.096-3.189-4.806.547-.362zM14.003 98.81l-6.391 5.839 8.65.431.255.71-10.146-.546-.099-.276 7.47-6.879.261.721zM11.009 81.775l-7.632 4.086 8.278 2.548.073.751-9.7-3.028L2 85.84l8.935-4.829.074.764zM12.36 63.972l-.111.718-4.6-.709-.865 5.608 4.6.71-.111.717-9.117-1.406.111-.719 3.868.597L7 63.879l-3.867-.597.11-.718 9.117 1.408zM9.747 43.392l8.582 3.735-.117.269-9.609 2.476 7.046 3.067-.291.664-8.581-3.734.111-.256 9.64-2.478-7.069-3.076.288-.667zM24.318 37.171l-.424.589-7.489-5.388.424-.59 7.489 5.389zM25.09 22.07l.533-.492 6.253 6.774-.534.494-6.252-6.776zm11.169 2.238l-.688.636-6.934-.388.414-6.142.708-.653-.395 6.142 6.895.405zM46.45 8.271c1.249.357 2.195 1.125 2.84 2.301.64 1.17.776 2.379.408 3.626-.368 1.249-1.129 2.189-2.281 2.82-1.161.637-2.361.771-3.604.404-1.242-.366-2.183-1.135-2.823-2.302-.645-1.178-.786-2.387-.424-3.626.362-1.24 1.124-2.178 2.284-2.813 1.153-.632 2.352-.769 3.6-.41zm-5.193 3.378c-.288 1.045-.155 2.074.4 3.088.555 1.014 1.353 1.683 2.391 2.007 1.038.323 2.056.212 3.053-.334.989-.542 1.627-1.337 1.912-2.386.286-1.05.151-2.081-.404-3.095-.551-1.005-1.347-1.669-2.389-1.991-1.043-.321-2.055-.213-3.035.324-.997.547-1.641 1.342-1.928 2.387z"/></g></switch></svg>