<svg version="1.2" baseProfile="tiny" xmlns="http://www.w3.org/2000/svg" width="313.091" height="160.617" viewBox="0 0 313.091 160.617"><path fill="#FFF" d="M218.358 87.083c-12.605-6.425-25.129-12.562-36.697-20.773-15.604-11.077-30.173-24.008-47.412-32.564-1.868-.927-3.512 1.872-1.638 2.802 16.748 8.312 31.128 20.733 46.172 31.672 11.897 8.651 24.874 15.007 37.938 21.664 1.86.948 3.502-1.851 1.637-2.801zM210.418 97.904c-13.571-7.16-25.404-16.072-37.662-25.201-14.868-11.073-32.324-17.924-46.65-29.737-1.601-1.32-3.91.962-2.294 2.294 14.162 11.678 31.296 18.495 46.049 29.315 12.752 9.353 24.868 18.718 38.92 26.13 1.849.975 3.489-1.825 1.637-2.801zM194.059 109.107c-11.943-8.006-19.905-20.093-31.728-28.17-7.825-5.346-16.397-9.722-24.376-14.873-8.123-5.243-16.252-10.452-24.865-14.864-1.858-.952-3.5 1.848-1.638 2.802 8.076 4.137 15.731 8.969 23.349 13.885 8.058 5.2 16.362 9.919 24.511 14.956 6.351 3.925 11.414 9.165 16.409 14.626 5.031 5.501 10.504 10.288 16.7 14.44 1.745 1.168 3.367-1.644 1.638-2.802zM186.174 120.86c-8.568-1.756-13.099-5.617-16.955-13.209-3.693-7.269-8.359-12.059-14.965-16.788-8.964-6.418-18.567-10.959-28.202-16.181-8.164-4.425-14.267-10.545-19.43-18.212-1.162-1.725-3.974-.103-2.802 1.638 4.725 7.016 10.171 12.94 17.347 17.483 9.282 5.877 19.474 9.857 28.611 16.087 4.514 3.077 9.101 6.136 12.464 10.51 2.254 2.931 3.759 6.369 5.476 9.62 3.78 7.158 9.788 10.581 17.592 12.181 2.043.418 2.913-2.709.864-3.129zM177.458 133.219c-6.847-3.907-13.39-8.17-19.508-13.151-6.44-5.244-12.273-11.175-18.599-16.549-13.004-11.046-27.486-20.556-38.076-34.152-1.285-1.649-3.563.665-2.294 2.294 10.564 13.563 25.013 23.223 38.076 34.153 6.367 5.327 12.21 11.24 18.599 16.548 6.27 5.21 13.094 9.624 20.165 13.658 1.819 1.039 3.453-1.765 1.637-2.801zM143.411 129.732c-16.16 1.436-31.439 6.51-47.197 10.001-15.215 3.371-30.497 2.449-45.875 4.16-2.056.229-2.078 3.476 0 3.244 13.763-1.531 27.588-.755 41.267-3.174 17.447-3.086 34.063-9.411 51.806-10.987 2.066-.184 2.084-3.43-.001-3.244zM130.229 117.601c-31.073 8.01-64.342 14.87-96.522 11.456-2.08-.221-2.058 3.026 0 3.244 32.418 3.439 66.085-3.504 97.384-11.571 2.026-.522 1.166-3.651-.862-3.129zM116.452 106.432c-7.636-.338-15.024.88-22.483 2.385-4.145.836-8.273 1.805-12.491 2.197-4.341.403-8.764-.006-13.118.083-7.53.152-15.185 1.825-22.662 2.723a301.975 301.975 0 0 1-23.961 1.894c-2.085.083-2.093 3.328 0 3.244 15.052-.6 29.79-3.003 44.746-4.513 7.713-.779 15.181.093 22.879-1.391 9.017-1.737 17.838-3.787 27.09-3.378 2.092.093 2.083-3.152 0-3.244zM102.093 94.845c-7.195-3.165-14.639-2.69-22.239-1.443-10.732 1.761-21.377 3.422-32.188 4.681-11.988 1.396-24.032 2.198-35.958 4.161-2.061.339-1.184 3.466.862 3.129 11.342-1.867 22.885-3.124 34.345-3.994 8.473-.643 17.011-1.849 25.388-3.271 9.296-1.579 19.053-4.463 28.152-.461 1.896.833 3.549-1.961 1.638-2.802zM96.424 80.43c-18.235-.464-35.653 2.196-53.558 5.187-13.565 2.266-27.513 4.854-41.298 5.042-2.09.028-2.093 3.272 0 3.244 12.946-.177 26.031-2.571 38.786-4.607 18.751-2.992 36.975-6.106 56.069-5.621 2.095.053 2.09-3.192.001-3.245zM82.532 68.004c6.996-7.374 15.764-12.703 23.158-19.641 4.666-4.378 8.846-9.385 13.147-14.111 9.518-10.456 18.918-21.018 28.466-31.446 1.41-1.54-.878-3.84-2.294-2.294-9.548 10.428-18.953 20.986-28.466 31.446-3.982 4.379-7.983 8.739-12.058 13.032-7.339 7.733-16.896 12.971-24.248 20.72-1.438 1.517.853 3.815 2.295 2.294zM66.96 70.635c6.301-7.498 14.117-13.496 20.472-20.94 4.271-5.003 7.906-10.469 12.291-15.417 8.692-9.81 19.023-19.061 26.152-30.126 1.137-1.765-1.673-3.39-2.802-1.638-7.17 11.13-17.667 20.467-26.414 30.339-4.139 4.671-7.616 9.713-11.521 14.549-6.144 7.608-14.177 13.449-20.472 20.94-1.336 1.589.946 3.897 2.294 2.293zM103.76 3.504c-1.829 4.8-7.366 9.199-10.843 12.787-4.462 4.605-9.075 9.061-13.59 13.613-5.526 5.573-10 12-14.133 18.653-4.648 7.483-8.402 16.907-15.641 22.322-1.654 1.238-.04 4.056 1.638 2.802 6.707-5.018 10.676-12.995 14.788-20.087 4.571-7.883 9.727-15.43 16.156-21.913 4.872-4.914 9.841-9.728 14.64-14.715 3.489-3.626 8.273-7.769 10.114-12.6.746-1.958-2.391-2.797-3.129-.862zM85.896 3.328C75.704 13.611 64.934 23.173 57.367 35.69c-1.989 3.29-3.351 6.878-5.223 10.224-1.994 3.564-4.595 6.824-7.118 10.018-4.251 5.382-8.966 10.51-12.544 16.386-1.091 1.792 1.716 3.421 2.802 1.638 3.689-6.06 8.581-11.354 12.966-16.907 4.25-5.381 7.272-10.896 10.376-16.96C65.63 26.405 77.553 16.354 88.19 5.622c1.474-1.487-.819-3.782-2.294-2.294zM58.727 7.85c-1.511 5.095-4.625 9.784-7.399 14.263-3.934 6.352-8.184 12.51-12.43 18.655-3.397 4.917-6.879 9.782-10.129 14.798-5.584 8.619-12.278 16.109-19.181 23.675-1.407 1.542.881 3.842 2.294 2.294 6.773-7.423 13.583-14.776 19.017-23.268 3.23-5.049 6.698-9.941 10.112-14.867 4.486-6.474 8.936-12.976 13.119-19.65 2.947-4.704 6.134-9.67 7.727-15.038.595-2.01-2.536-2.863-3.13-.862zM146.228 27.137a822.205 822.205 0 0 0 43.234-9.3c6.179-1.506 12.221-3.406 18.366-4.998 5.601-1.451 11.43-1.478 17.03-2.928 2.023-.524 1.164-3.654-.863-3.129-5.072 1.313-10.375 1.686-15.536 2.601-6.046 1.072-12.042 3.38-18.011 4.87-14.919 3.723-29.971 6.921-45.083 9.755-2.054.386-1.182 3.513.863 3.129zM247.023 16.67c-13.696.773-27.112 4.764-40.324 8.181-15.596 4.035-31.514 6.438-47.151 10.247-2.031.495-1.17 3.624.863 3.129 15.153-3.691 30.586-6.008 45.708-9.875 13.406-3.429 27.014-7.652 40.904-8.437 2.08-.118 2.091-3.363 0-3.245zM266.077 27.543c-14.198.014-28.267 3.327-42.148 5.944-7.432 1.4-14.863 2.33-22.352 3.314-8.549 1.124-16.806 3.993-24.932 6.76-1.969.671-1.123 3.805.863 3.129 7.467-2.543 14.944-4.979 22.715-6.417 7.074-1.311 14.317-1.797 21.418-3.075 14.677-2.642 29.442-6.395 44.436-6.41 2.091-.003 2.091-3.247 0-3.245zM283.53 38.801c-15.087 5.956-32.104 6.421-48.094 7.523-7.842.54-15.693 1.046-23.491 2.058-9.208 1.195-17.544 5.271-26.614 7.007-2.053.394-1.182 3.52.863 3.129 9.198-1.761 17.642-5.838 26.982-7.051 7.878-1.022 15.834-1.456 23.754-2.001 15.757-1.085 32.599-1.668 47.463-7.535 1.922-.76 1.085-3.899-.863-3.13zM308.827 50.313c-15.174 1.078-30.295 3.563-45.373 5.516-7.237.937-14.434 1.749-21.714 2.27-12.508.894-23.96 5.378-36.12 8.021-2.044.444-1.177 3.572.863 3.129 12.529-2.724 24.179-7.114 37.078-8.036 7.054-.504 14.038-1.381 21.051-2.29 14.693-1.903 29.428-4.315 44.215-5.366 2.074-.147 2.089-3.392 0-3.244zM239.85 77.524c-8.28 18.685-24.547 33.464-37.891 48.589-9.199 10.428-20.082 20.363-27.617 32.112-1.134 1.767 1.676 3.392 2.801 1.637 7.673-11.961 18.864-22.046 28.203-32.697 13.142-14.988 29.109-29.51 37.305-48.003.84-1.894-1.955-3.547-2.801-1.638zM256.979 72.974c-19.734 27.778-39.058 56.09-60.767 82.384-1.32 1.601.961 3.909 2.295 2.295 21.886-26.51 41.378-55.037 61.272-83.042 1.216-1.71-1.6-3.327-2.8-1.637zM273.059 74.209c-1.737 4.643-4.92 8.396-7.927 12.264-2.872 3.695-5.481 7.623-8.172 11.453-5.144 7.321-8.651 15.512-13.61 22.86-7.651 11.337-19.402 20.184-25.775 32.359-.97 1.851 1.83 3.491 2.801 1.637 6.332-12.096 17.949-21.219 25.775-32.358 2.021-2.876 3.345-6.112 4.979-9.208 2.515-4.761 5.565-9.236 8.631-13.652 5.438-7.833 13.056-15.484 16.427-24.493.734-1.963-2.402-2.803-3.129-.862zM295.418 65.13c-17.962 28.584-41.992 53.926-56.695 84.494-.902 1.876 1.895 3.522 2.801 1.637 14.703-30.566 38.734-55.908 56.695-84.493 1.117-1.778-1.691-3.404-2.801-1.638zM262.12 151.439c7.248-13.849 17.505-26.129 26.499-38.851 4.452-6.297 8.748-12.697 11.981-19.718 4.031-8.754 6.58-18.113 12.195-26.073 1.21-1.714-1.605-3.333-2.801-1.638-5.283 7.488-8.02 16.238-11.551 24.603-3.039 7.199-7.391 13.685-11.841 20.069-9.175 13.163-19.819 25.705-27.284 39.97-.968 1.852 1.832 3.492 2.802 1.638z"/></svg>